<svg enable-background="new 0 0 1832.5 1832.5" viewBox="0 0 1832.5 1832.5" xmlns="http://www.w3.org/2000/svg"><path d="m209.5 1529.9c-35.7 0-68.7-19.1-86.6-50s-17.9-69.1 0-100l707.6-1225.6c17.9-30.9 50.9-50 86.6-50s68.7 19.1 86.6 50l707.6 1225.6c17.9 30.9 17.9 69.1 0 100s-50.9 50-86.6 50z" fill="#fff"/><path d="m917.1 204.3 707.6 1225.6h-1415.2zm0-200c-71.5 0-137.5 38.1-173.2 100l-707.6 1225.6c-35.7 61.9-35.7 138.1 0 200s101.8 100 173.2 100h1415.2c71.5 0 137.5-38.1 173.2-100s35.7-138.1 0-200l-707.6-1225.6c-35.7-61.9-101.7-100-173.2-100z" fill="#eb1f26"/><path d="m1103.8 668.1c-2.2-1.4-30-13.9-52.9-28-6-3.6-7.5-5.5-14.9-9.3-3.2-1.6-5.6-2.5-7.4-2.8-3.6-2.9-29.7-22.1-66.1-14-39.3 8.7-65 53.7-69.6 63.9-4.5 10.2-15.9 32.7-13.6 73.2 1.2 21.9 29.5 67.9 40.1 84.1 10.6 16.3 30.6 51.8 32.1 57.1s4.9 5.7.4 10.2-27.6 4.2-46.5 6.8c-13.9 1.9-98.7 18.5-115.3 25-12.5 4.8-38.2 14-49.5 17.4s-28 9.8-51.4 10.2-59.9-13.9-76.6-14.7c-16.6-.8-24.6.8-25 3.4s-5.3-.3-5.7 2.6c-.4 3 0 17.8 4.2 24.2-4.1-2.3-4.2-1.1-4.2 3.4s69.6 90.4 83.2 103.6 42.7 58.3 46.1 67.3 15.7 48.7 34.2 61.5c5.1 3.5 10.9 5.6 17.3 6.5 8.5 27.5 16.3 71.4 16.2 78.4-.1 7.3-3.5 10.4-2.6 12.7s25.8 37.7 34 43.1 22.4 11.3 26.3 7.6c3.9-3.8 1.9-14.2 1.9-14.2s34.7 3.4 39 3.2c7.6-.3 9.5.1 11.5-5.1 3.6-9.4-2.8-13.4-2.8-13.4s25.6 2.7 27.6 0c2.8-3.8-3.9-12.4-10.4-13.4-25.8-4.2-29-6.6-50.9-11.2-19.9-4.2-44.6-9-47.5-12.1-6.1-6.6-7.2-11.6-8.1-16.1-1.8-8.5-3.9-17.2-3.8-61.6 7.9-2 15.6-4.8 22.5-8 18.9-8.8 49-10.3 67.6-12 7.5 27.1 5.5 61.6-2.7 81.8-1.6 4-1 8.5 2.1 9.1 28.6 4.9 50.2 9.8 59.4 11.2 9.3 1.4 41.8 10.1 46.5 11.2 5.6 1.2 7 .5 8.5-1.9 1.5-2.3-.8-6.1-.8-6.1s12.6 0 20.6-.6c3.5-.3 9.8-3.7 1.7-11-4-3.6-13.6-6.4-13.6-6.4s2.1-6.2-4.9-7.9c-6.8-1.7-30.6-4.6-40.1-5.7-19.2-2.3-31.3-7.7-38.6-10.4-10.6-3.9-9.6-7.4-10.4-14.7-1.8-16.3-.5-42.3 1.7-54.8 8.7-3.3 16.8-7.8 24.1-13.5 15.5-12.2 76.4-59.3 105.5-91.9 12.3-13.8 17-28.7 20.8-34 3.8-5.4 25.3-35.5 27.2-58.6s-7.2-63.2-14-77.1c-12.1-24.9-28.8-49.7-63.2-80.4-19.4-17.3-48.8-59.5-52.9-69.2-3-7-7.8-10.8-4.2-22.7 3.1-10 19.6-22.3 29.5-28.4s34.4-10.2 39-17.4c0 0 0-.1.1-.1 13.7 2.2 73.7 1.5 80.1-1.6 7-3.4 11-11.7 11-17.2-.3-5.6-8.6-9.3-11.8-11.2z" fill="#231f20"/></svg>